<svg width="82" height="82" viewBox="0 0 82 82" fill="none" xmlns="http://www.w3.org/2000/svg">
<path d="M41.5663 0.374869C18.7186 0.0662748 0.0662748 18.7186 0.374869 41.5663C0.679556 63.4784 18.5214 81.3202 40.4335 81.6249C63.285 81.9374 81.9335 63.285 81.621 40.4374C81.3202 18.5214 63.4784 0.679556 41.5663 0.374869ZM38.287 37.9667L48.3553 26.4432C48.9008 25.819 49.6719 25.4371 50.4989 25.3814C51.326 25.3257 52.1413 25.6009 52.7655 26.1464C53.3897 26.6918 53.7716 27.4629 53.8273 28.2899C53.883 29.117 53.6078 29.9323 53.0624 30.5565L42.994 42.0799C42.7239 42.389 42.3956 42.6419 42.0278 42.824C41.66 43.0062 41.2599 43.1142 40.8504 43.1418C40.4409 43.1693 40.03 43.116 39.6411 42.9847C39.2522 42.8535 38.8929 42.6469 38.5839 42.3768C38.2748 42.1067 38.0219 41.7784 37.8398 41.4106C37.6576 41.0428 37.5496 40.6427 37.522 40.2332C37.4945 39.8237 37.5478 39.4128 37.6791 39.0239C37.8103 38.635 38.0169 38.2757 38.287 37.9667ZM30.6971 55.7108C30.1111 56.2964 29.3166 56.6254 28.4882 56.6254C27.6597 56.6254 26.8652 56.2964 26.2792 55.7108L16.9139 46.3358C16.6238 46.0455 16.3938 45.7008 16.2369 45.3216C16.08 44.9423 15.9993 44.5359 15.9995 44.1254C15.9997 43.715 16.0807 43.3086 16.2379 42.9295C16.3952 42.5504 16.6255 42.206 16.9159 41.9159C17.2062 41.6258 17.5509 41.3957 17.9301 41.2388C18.3094 41.0819 18.7158 41.0013 19.1262 41.0015C19.5367 41.0016 19.9431 41.0827 20.3222 41.2399C20.7013 41.3971 21.0457 41.6275 21.3358 41.9178L30.7108 51.2928C31.2946 51.8806 31.6211 52.6762 31.6185 53.5047C31.616 54.3331 31.2846 55.1266 30.6971 55.7108ZM65.2284 30.5565L43.3768 55.5565C43.0953 55.8791 42.7505 56.1404 42.3638 56.3242C41.977 56.5079 41.5567 56.6103 41.1288 56.6249H41.0233C40.6127 56.6249 40.206 56.5441 39.8267 56.3869C39.4473 56.2297 39.1026 55.9993 38.8124 55.7089L29.4491 46.3339C28.8632 45.7475 28.5343 44.9524 28.5347 44.1235C28.535 43.2946 28.8647 42.4998 29.451 41.9139C30.0374 41.3281 30.8325 40.9991 31.6614 40.9995C32.4903 40.9999 33.2851 41.3295 33.871 41.9159L39.6913 47.7421C39.8426 47.8934 40.0234 48.0121 40.2224 48.0907C40.4215 48.1693 40.6345 48.2061 40.8484 48.199C41.0623 48.1918 41.2725 48.1408 41.4658 48.0491C41.6592 47.9574 41.8317 47.827 41.9725 47.6659L60.5272 26.4432C61.0727 25.819 61.8437 25.4371 62.6708 25.3814C63.4979 25.3257 64.3132 25.6009 64.9374 26.1464C65.5616 26.6918 65.9435 27.4629 65.9992 28.2899C66.0548 29.117 65.7797 29.9323 65.2342 30.5565H65.2284Z" fill="#C6A664"/>
</svg>
